<mxfile host="www.draw.io" modified="2020-02-17T06:16:50.305Z" agent="Mozilla/5.0 (Macintosh; Intel Mac OS X 10_14_6) AppleWebKit/537.36 (KHTML, like Gecko) Chrome/79.0.3945.130 Safari/537.36" etag="APvQGYDNCheI9QzddIYh" version="12.7.0" type="github" pages="2">
  <diagram id="88j6w0D9r9gqqR4eN1nP" name="第 1 页">
    <mxGraphModel dx="1136" dy="591" grid="1" gridSize="10" guides="1" tooltips="1" connect="1" arrows="1" fold="1" page="1" pageScale="1" pageWidth="850" pageHeight="1100" math="0" shadow="0">
      <root>
        <mxCell id="0"/>
        <mxCell id="1" parent="0"/>
        <mxCell id="CbaBmDf87kF8CM8pXv9o-1" value="newInstance()" style="rounded=1;whiteSpace=wrap;html=1;align=center;" parent="1" vertex="1">
          <mxGeometry x="200" y="270" width="120" height="60" as="geometry"/>
        </mxCell>
        <mxCell id="CbaBmDf87kF8CM8pXv9o-2" value="&lt;font color=&quot;#333333&quot;&gt;field.get(null);&lt;br&gt;field.get(instance);&lt;br&gt;field.set(instance);&lt;br&gt;method.invoke(instance);&lt;br&gt;&lt;/font&gt;" style="rounded=1;whiteSpace=wrap;html=1;" parent="1" vertex="1">
          <mxGeometry x="550" y="270" width="170" height="60" as="geometry"/>
        </mxCell>
        <mxCell id="CbaBmDf87kF8CM8pXv9o-3" value="Class" style="text;html=1;strokeColor=none;fillColor=none;align=center;verticalAlign=middle;whiteSpace=wrap;rounded=0;" parent="1" vertex="1">
          <mxGeometry x="240" y="230" width="40" height="20" as="geometry"/>
        </mxCell>
        <mxCell id="CbaBmDf87kF8CM8pXv9o-4" value="执行" style="text;html=1;strokeColor=none;fillColor=none;align=center;verticalAlign=middle;whiteSpace=wrap;rounded=0;" parent="1" vertex="1">
          <mxGeometry x="615" y="230" width="40" height="20" as="geometry"/>
        </mxCell>
        <mxCell id="CbaBmDf87kF8CM8pXv9o-5" value="" style="endArrow=classic;html=1;" parent="1" edge="1">
          <mxGeometry width="50" height="50" relative="1" as="geometry">
            <mxPoint x="330" y="270" as="sourcePoint"/>
            <mxPoint x="540" y="270" as="targetPoint"/>
          </mxGeometry>
        </mxCell>
        <mxCell id="CbaBmDf87kF8CM8pXv9o-6" value="获取" style="text;html=1;strokeColor=none;fillColor=none;align=center;verticalAlign=middle;whiteSpace=wrap;rounded=0;" parent="1" vertex="1">
          <mxGeometry x="400" y="230" width="40" height="20" as="geometry"/>
        </mxCell>
        <mxCell id="CbaBmDf87kF8CM8pXv9o-7" value="&lt;div&gt;&lt;span&gt;Class A{&lt;/span&gt;&lt;/div&gt;&lt;div&gt;&lt;span&gt;T t;&lt;/span&gt;&lt;/div&gt;&lt;div style=&quot;text-align: left&quot;&gt;&lt;span&gt;&amp;nbsp; &amp;nbsp; &amp;nbsp;}&lt;/span&gt;&lt;/div&gt;&lt;div style=&quot;text-align: left&quot;&gt;&lt;span&gt;&lt;br&gt;&lt;/span&gt;&lt;/div&gt;&lt;div style=&quot;text-align: left&quot;&gt;FieldA/MethodA&lt;/div&gt;" style="rounded=1;whiteSpace=wrap;html=1;" parent="1" vertex="1">
          <mxGeometry x="160" y="480" width="120" height="90" as="geometry"/>
        </mxCell>
        <mxCell id="CbaBmDf87kF8CM8pXv9o-12" value="&lt;span style=&quot;white-space: normal&quot;&gt;Class B{&lt;/span&gt;&lt;br style=&quot;white-space: normal&quot;&gt;&lt;span style=&quot;white-space: normal&quot;&gt;A a;&lt;/span&gt;&lt;br style=&quot;white-space: normal&quot;&gt;&lt;div style=&quot;white-space: normal ; text-align: left&quot;&gt;&amp;nbsp; &amp;nbsp; &amp;nbsp;}&lt;/div&gt;&lt;div style=&quot;white-space: normal ; text-align: left&quot;&gt;&lt;br&gt;&lt;/div&gt;&lt;div style=&quot;white-space: normal ; text-align: left&quot;&gt;FieldB/MethodB&lt;br&gt;&lt;/div&gt;" style="rounded=1;whiteSpace=wrap;html=1;" parent="1" vertex="1">
          <mxGeometry x="405" y="478" width="120" height="90" as="geometry"/>
        </mxCell>
        <mxCell id="CbaBmDf87kF8CM8pXv9o-13" value="&lt;span style=&quot;white-space: normal&quot;&gt;Class C{&lt;/span&gt;&lt;br style=&quot;white-space: normal&quot;&gt;&lt;span style=&quot;white-space: normal&quot;&gt;static&amp;nbsp; B&amp;nbsp; b;&lt;/span&gt;&lt;br style=&quot;white-space: normal&quot;&gt;&lt;div style=&quot;white-space: normal ; text-align: left&quot;&gt;&amp;nbsp; &amp;nbsp; &amp;nbsp; }&lt;/div&gt;&lt;div style=&quot;white-space: normal ; text-align: left&quot;&gt;&lt;br&gt;&lt;/div&gt;&lt;div style=&quot;white-space: normal ; text-align: left&quot;&gt;FieldC/MethodC&lt;br&gt;&lt;/div&gt;" style="rounded=1;whiteSpace=wrap;html=1;" parent="1" vertex="1">
          <mxGeometry x="650" y="480" width="120" height="90" as="geometry"/>
        </mxCell>
        <mxCell id="CbaBmDf87kF8CM8pXv9o-18" style="edgeStyle=orthogonalEdgeStyle;rounded=0;orthogonalLoop=1;jettySize=auto;html=1;" parent="1" edge="1">
          <mxGeometry relative="1" as="geometry">
            <mxPoint x="510" y="600" as="targetPoint"/>
            <mxPoint x="660" y="600" as="sourcePoint"/>
          </mxGeometry>
        </mxCell>
        <mxCell id="CbaBmDf87kF8CM8pXv9o-14" value="field.get(null)" style="text;html=1;strokeColor=none;fillColor=none;align=center;verticalAlign=middle;whiteSpace=wrap;rounded=0;" parent="1" vertex="1">
          <mxGeometry x="690" y="590" width="40" height="20" as="geometry"/>
        </mxCell>
        <mxCell id="CbaBmDf87kF8CM8pXv9o-19" style="edgeStyle=orthogonalEdgeStyle;rounded=0;orthogonalLoop=1;jettySize=auto;html=1;" parent="1" edge="1">
          <mxGeometry relative="1" as="geometry">
            <mxPoint x="260" y="600" as="targetPoint"/>
            <mxPoint x="430" y="600" as="sourcePoint"/>
          </mxGeometry>
        </mxCell>
        <mxCell id="CbaBmDf87kF8CM8pXv9o-15" value="field.get(b)" style="text;html=1;strokeColor=none;fillColor=none;align=center;verticalAlign=middle;whiteSpace=wrap;rounded=0;" parent="1" vertex="1">
          <mxGeometry x="445" y="590" width="40" height="20" as="geometry"/>
        </mxCell>
        <mxCell id="CbaBmDf87kF8CM8pXv9o-16" value="field.get(a)" style="text;html=1;strokeColor=none;fillColor=none;align=center;verticalAlign=middle;whiteSpace=wrap;rounded=0;" parent="1" vertex="1">
          <mxGeometry x="200" y="590" width="40" height="20" as="geometry"/>
        </mxCell>
      </root>
    </mxGraphModel>
  </diagram>
  <diagram id="J08JRC78lxoZAnMaaRKa" name="第 2 页">
    <mxGraphModel dx="1136" dy="591" grid="1" gridSize="10" guides="1" tooltips="1" connect="1" arrows="1" fold="1" page="1" pageScale="1" pageWidth="850" pageHeight="1100" math="0" shadow="0">
      <root>
        <mxCell id="R8Teo642hzgC20rZTm7d-0"/>
        <mxCell id="R8Teo642hzgC20rZTm7d-1" parent="R8Teo642hzgC20rZTm7d-0"/>
        <mxCell id="R8Teo642hzgC20rZTm7d-2" value="动态代理" style="rounded=1;whiteSpace=wrap;html=1;" parent="R8Teo642hzgC20rZTm7d-1" vertex="1">
          <mxGeometry x="300" y="200" width="120" height="60" as="geometry"/>
        </mxCell>
        <mxCell id="R8Teo642hzgC20rZTm7d-3" value="阉割版" style="rounded=1;whiteSpace=wrap;html=1;" parent="R8Teo642hzgC20rZTm7d-1" vertex="1">
          <mxGeometry x="300" y="50" width="120" height="60" as="geometry"/>
        </mxCell>
        <mxCell id="R8Teo642hzgC20rZTm7d-4" value="Hook" style="rounded=1;whiteSpace=wrap;html=1;" parent="R8Teo642hzgC20rZTm7d-1" vertex="1">
          <mxGeometry x="300" y="340" width="120" height="60" as="geometry"/>
        </mxCell>
        <mxCell id="R8Teo642hzgC20rZTm7d-5" value="" style="endArrow=classic;startArrow=classic;html=1;exitX=0.5;exitY=0;exitDx=0;exitDy=0;" parent="R8Teo642hzgC20rZTm7d-1" source="R8Teo642hzgC20rZTm7d-2" edge="1">
          <mxGeometry width="50" height="50" relative="1" as="geometry">
            <mxPoint x="300" y="470" as="sourcePoint"/>
            <mxPoint x="360" y="110" as="targetPoint"/>
            <Array as="points">
              <mxPoint x="360" y="110"/>
            </Array>
          </mxGeometry>
        </mxCell>
        <mxCell id="R8Teo642hzgC20rZTm7d-6" value="" style="endArrow=classic;startArrow=classic;html=1;entryX=0.5;entryY=1;entryDx=0;entryDy=0;" parent="R8Teo642hzgC20rZTm7d-1" source="R8Teo642hzgC20rZTm7d-4" target="R8Teo642hzgC20rZTm7d-2" edge="1">
          <mxGeometry width="50" height="50" relative="1" as="geometry">
            <mxPoint x="300" y="470" as="sourcePoint"/>
            <mxPoint x="350" y="420" as="targetPoint"/>
          </mxGeometry>
        </mxCell>
        <mxCell id="R8Teo642hzgC20rZTm7d-7" value="Retrofit" style="text;html=1;strokeColor=none;fillColor=none;align=center;verticalAlign=middle;whiteSpace=wrap;rounded=0;" parent="R8Teo642hzgC20rZTm7d-1" vertex="1">
          <mxGeometry x="450" y="70" width="40" height="20" as="geometry"/>
        </mxCell>
        <mxCell id="R8Teo642hzgC20rZTm7d-8" value="三要素：接口、方法、对象" style="text;html=1;strokeColor=none;fillColor=none;align=center;verticalAlign=middle;whiteSpace=wrap;rounded=0;" parent="R8Teo642hzgC20rZTm7d-1" vertex="1">
          <mxGeometry x="440" y="220" width="100" height="20" as="geometry"/>
        </mxCell>
        <mxCell id="R8Teo642hzgC20rZTm7d-9" value="反射替换接口、反射替换对象" style="text;html=1;strokeColor=none;fillColor=none;align=center;verticalAlign=middle;whiteSpace=wrap;rounded=0;" parent="R8Teo642hzgC20rZTm7d-1" vertex="1">
          <mxGeometry x="440" y="360" width="100" height="20" as="geometry"/>
        </mxCell>
        <mxCell id="Tt1f4IGVuV7XfBR5Xm62-1" value="动态代理" style="text;html=1;strokeColor=none;fillColor=none;align=center;verticalAlign=middle;whiteSpace=wrap;rounded=0;" parent="R8Teo642hzgC20rZTm7d-1" vertex="1">
          <mxGeometry x="50" y="30" width="50" height="20" as="geometry"/>
        </mxCell>
      </root>
    </mxGraphModel>
  </diagram>
</mxfile>
